<svg xmlns="http://www.w3.org/2000/svg" width="2400" height="1350" viewBox="0 0 2400 1350" role="img" aria-label="Holographic diploma with wax-seal digital NFT">
  <defs>
    <linearGradient id="g0" x1="0" y1="0" x2="1" y2="1">
      <stop offset="0" stop-color="#05070c"/>
      <stop offset="1" stop-color="#0b1020"/>
    </linearGradient>
    <radialGradient id="goldGlow" cx="30%" cy="24%" r="70%">
      <stop offset="0" stop-color="rgba(212,175,55,.26)"/>
      <stop offset="0.55" stop-color="rgba(212,175,55,.08)"/>
      <stop offset="1" stop-color="rgba(212,175,55,0)"/>
    </radialGradient>
    <radialGradient id="blueGlow" cx="80%" cy="18%" r="70%">
      <stop offset="0" stop-color="rgba(150,220,180,.10)"/>
      <stop offset="1" stop-color="rgba(120,180,255,0)"/>
    </radialGradient>
    <filter id="blur" x="-20%" y="-20%" width="140%" height="140%">
      <feGaussianBlur stdDeviation="8"/>
    </filter>
  </defs>

  <rect width="2400" height="1350" fill="url(#g0)"/>
  <rect width="2400" height="1350" fill="url(#goldGlow)"/>
  <rect width="2400" height="1350" fill="url(#blueGlow)"/>

  <g opacity="0.8"><path d="M 695.4 1123.5 Q 1384.5 1451.7 1723.5 1380.9" stroke="rgba(243,210,122,0.105)" stroke-width="1.06" fill="none"/><path d="M 1366.0 1346.3 Q 1922.6 1110.8 1853.2 1258.4" stroke="rgba(243,210,122,0.117)" stroke-width="2.02" fill="none"/><path d="M 1752.5 899.6 Q 1037.2 498.4 396.5 453.3" stroke="rgba(243,210,122,0.111)" stroke-width="1.55" fill="none"/><path d="M 519.4 979.6 Q 1341.2 739.2 1891.4 541.4" stroke="rgba(243,210,122,0.123)" stroke-width="1.52" fill="none"/><path d="M 1061.2 907.0 Q 737.9 945.9 224.9 901.5" stroke="rgba(243,210,122,0.135)" stroke-width="1.48" fill="none"/><path d="M -119.3 872.6 Q -209.3 272.4 417.7 -54.9" stroke="rgba(243,210,122,0.063)" stroke-width="1.49" fill="none"/><path d="M 1536.1 1275.9 Q 1494.8 837.4 2002.5 38.2" stroke="rgba(243,210,122,0.067)" stroke-width="1.08" fill="none"/><path d="M 359.9 452.0 Q 445.8 358.8 539.9 196.3" stroke="rgba(243,210,122,0.078)" stroke-width="1.92" fill="none"/><path d="M 1910.4 567.5 Q 1910.6 338.7 1221.8 186.7" stroke="rgba(243,210,122,0.099)" stroke-width="1.28" fill="none"/><path d="M 1737.5 1171.3 Q 1168.7 957.8 335.9 1058.4" stroke="rgba(243,210,122,0.134)" stroke-width="1.83" fill="none"/><path d="M 133.8 790.2 Q 1218.9 754.8 1804.0 977.3" stroke="rgba(243,210,122,0.077)" stroke-width="1.03" fill="none"/><path d="M 1906.3 -45.3 Q 2345.8 470.8 2217.5 773.7" stroke="rgba(243,210,122,0.116)" stroke-width="2.17" fill="none"/><path d="M 582.2 1161.3 Q 741.9 737.9 232.6 281.0" stroke="rgba(243,210,122,0.081)" stroke-width="1.89" fill="none"/><path d="M 2596.7 -65.1 Q 1979.3 315.1 1668.4 771.7" stroke="rgba(243,210,122,0.088)" stroke-width="1.20" fill="none"/></g>
  <g><circle cx="546.9" cy="770.5" r="3.1" fill="rgba(212,175,55,0.119)"/><circle cx="1940.8" cy="778.3" r="3.3" fill="rgba(212,175,55,0.128)"/><circle cx="58.9" cy="221.6" r="2.4" fill="rgba(212,175,55,0.059)"/><circle cx="404.5" cy="408.5" r="2.4" fill="rgba(212,175,55,0.117)"/><circle cx="2299.7" cy="267.5" r="4.7" fill="rgba(212,175,55,0.100)"/><circle cx="614.4" cy="448.8" r="2.5" fill="rgba(212,175,55,0.079)"/><circle cx="546.2" cy="1297.1" r="2.6" fill="rgba(212,175,55,0.132)"/><circle cx="1490.4" cy="785.3" r="4.7" fill="rgba(212,175,55,0.097)"/><circle cx="1677.2" cy="956.9" r="3.1" fill="rgba(212,175,55,0.104)"/><circle cx="1043.3" cy="1193.1" r="2.1" fill="rgba(212,175,55,0.098)"/><circle cx="2273.1" cy="853.0" r="4.8" fill="rgba(212,175,55,0.101)"/><circle cx="1172.1" cy="1112.8" r="2.1" fill="rgba(212,175,55,0.097)"/><circle cx="302.5" cy="1320.0" r="2.8" fill="rgba(212,175,55,0.126)"/><circle cx="987.3" cy="1195.3" r="4.0" fill="rgba(212,175,55,0.050)"/><circle cx="2392.6" cy="118.0" r="2.8" fill="rgba(212,175,55,0.116)"/><circle cx="2002.9" cy="515.1" r="4.7" fill="rgba(212,175,55,0.113)"/><circle cx="27.1" cy="134.4" r="5.9" fill="rgba(212,175,55,0.127)"/><circle cx="340.9" cy="960.6" r="2.0" fill="rgba(212,175,55,0.053)"/><circle cx="1388.9" cy="246.8" r="4.6" fill="rgba(212,175,55,0.080)"/><circle cx="729.4" cy="946.9" r="2.2" fill="rgba(212,175,55,0.134)"/><circle cx="602.0" cy="1182.0" r="2.5" fill="rgba(212,175,55,0.089)"/><circle cx="1192.1" cy="1039.5" r="5.7" fill="rgba(212,175,55,0.129)"/><circle cx="1244.7" cy="1211.1" r="5.8" fill="rgba(212,175,55,0.111)"/><circle cx="1886.7" cy="137.8" r="2.5" fill="rgba(212,175,55,0.083)"/><circle cx="572.3" cy="64.0" r="4.9" fill="rgba(212,175,55,0.094)"/><circle cx="1987.8" cy="770.3" r="4.2" fill="rgba(212,175,55,0.089)"/><circle cx="1900.4" cy="1198.1" r="5.9" fill="rgba(212,175,55,0.062)"/><circle cx="2041.5" cy="1258.4" r="3.3" fill="rgba(212,175,55,0.097)"/><circle cx="90.3" cy="846.3" r="5.7" fill="rgba(212,175,55,0.129)"/><circle cx="1617.1" cy="603.7" r="3.8" fill="rgba(212,175,55,0.056)"/><circle cx="264.2" cy="1101.8" r="3.9" fill="rgba(212,175,55,0.137)"/><circle cx="375.3" cy="2.6" r="2.6" fill="rgba(212,175,55,0.137)"/><circle cx="892.3" cy="860.0" r="4.2" fill="rgba(212,175,55,0.060)"/><circle cx="1277.2" cy="1220.3" r="5.1" fill="rgba(212,175,55,0.129)"/><circle cx="1158.8" cy="988.2" r="4.2" fill="rgba(212,175,55,0.093)"/><circle cx="2139.6" cy="835.7" r="4.0" fill="rgba(212,175,55,0.093)"/><circle cx="642.3" cy="392.3" r="5.3" fill="rgba(212,175,55,0.135)"/><circle cx="1892.5" cy="1226.3" r="5.0" fill="rgba(212,175,55,0.113)"/></g>

  <g filter="url(#blur)" opacity="0.9">
    <circle cx="1752.0" cy="621.0" r="210" fill="rgba(255,255,255,.04)"/>
  </g>

  <g><circle cx="1752.0" cy="621.0" r="160" fill="none" stroke="rgba(212,175,55,0.180)" stroke-width="1.2"/><circle cx="1752.0" cy="621.0" r="215" fill="none" stroke="rgba(212,175,55,0.150)" stroke-width="1.2"/><circle cx="1752.0" cy="621.0" r="270" fill="none" stroke="rgba(212,175,55,0.120)" stroke-width="1.2"/><circle cx="1752.0" cy="621.0" r="325" fill="none" stroke="rgba(212,175,55,0.090)" stroke-width="1.2"/></g>

  <g>
    <rect x="1562.0" y="555.0" width="380" height="132" rx="26" fill="rgba(255,255,255,.05)" stroke="rgba(255,255,255,.10)"/>
    <text x="1752.0" y="613.0" text-anchor="middle" font-family="ui-sans-serif,system-ui" font-size="50" fill="rgba(245,247,255,.92)" letter-spacing="2">W3</text>
    <text x="1752.0" y="655.0" text-anchor="middle" font-family="ui-sans-serif,system-ui" font-size="22" fill="rgba(245,247,255,.60)" letter-spacing="1">w3.degree</text>
  </g>

  <g opacity="0.9">
    <circle cx="432.0" cy="1053.0" r="280" fill="rgba(212,175,55,.06)"/>
    <circle cx="432.0" cy="1053.0" r="279" fill="none" stroke="rgba(255,255,255,.06)"/>
  </g>
</svg>